<svg xmlns="http://www.w3.org/2000/svg" viewBox="0 0 1500 1000" preserveAspectRatio="xMidYMid slice">
  <defs>
    <linearGradient id="sky" x1="0" y1="0" x2="0" y2="1">
      <stop offset="0" stop-color="#3a3a3a"/>
      <stop offset="1" stop-color="#1f1f1f"/>
    </linearGradient>
    <linearGradient id="wall" x1="0" y1="0" x2="0" y2="1">
      <stop offset="0" stop-color="#4a4036"/>
      <stop offset="1" stop-color="#2a241e"/>
    </linearGradient>
  </defs>
  <rect width="1500" height="1000" fill="url(#sky)"/>
  <rect x="0" y="720" width="1500" height="280" fill="#1a1614"/>
  <polygon points="200,720 750,300 1300,720" fill="#2e2620"/>
  <rect x="280" y="500" width="940" height="280" fill="url(#wall)"/>
  <rect x="380" y="560" width="120" height="160" fill="#0d0a07"/>
  <rect x="620" y="560" width="120" height="160" fill="#0d0a07"/>
  <rect x="860" y="560" width="120" height="160" fill="#0d0a07"/>
  <rect x="710" y="640" width="80" height="140" fill="#221a13"/>
  <g opacity="0.4" fill="#000">
    <ellipse cx="380" cy="730" rx="40" ry="6"/>
    <ellipse cx="900" cy="735" rx="80" ry="8"/>
    <rect x="1000" y="725" width="180" height="6"/>
  </g>
  <g opacity="0.18" stroke="#000" stroke-width="2">
    <path d="M 290 540 L 540 700"/>
    <path d="M 760 540 L 920 720"/>
    <path d="M 1180 520 L 1080 700"/>
  </g>
  <text x="750" y="120" text-anchor="middle" font-family="Arial,sans-serif" font-size="42" fill="rgba(255,255,255,0.18)" font-weight="700" letter-spacing="8">PLATZHALTER · VORHER · AUSSEN</text>
</svg>
