<svg xmlns="http://www.w3.org/2000/svg" viewBox="0 0 1500 1000" preserveAspectRatio="xMidYMid slice">
  <defs>
    <linearGradient id="sky2" x1="0" y1="0" x2="0" y2="1">
      <stop offset="0" stop-color="#dfe6ea"/>
      <stop offset="1" stop-color="#a8b6bf"/>
    </linearGradient>
    <linearGradient id="wall2" x1="0" y1="0" x2="0" y2="1">
      <stop offset="0" stop-color="#f3ede2"/>
      <stop offset="1" stop-color="#cdbfa6"/>
    </linearGradient>
  </defs>
  <rect width="1500" height="1000" fill="url(#sky2)"/>
  <rect x="0" y="720" width="1500" height="280" fill="#7d8c79"/>
  <polygon points="200,720 750,300 1300,720" fill="#2a2a2e"/>
  <rect x="280" y="500" width="940" height="280" fill="url(#wall2)"/>
  <rect x="380" y="560" width="120" height="160" fill="#1a232b"/>
  <rect x="620" y="560" width="120" height="160" fill="#1a232b"/>
  <rect x="860" y="560" width="120" height="160" fill="#1a232b"/>
  <rect x="710" y="640" width="80" height="140" fill="#5a4837"/>
  <rect x="700" y="680" width="3" height="50" fill="#c9a45c"/>
  <g fill="#fff" opacity="0.4">
    <rect x="385" y="565" width="50" height="80"/>
    <rect x="625" y="565" width="50" height="80"/>
    <rect x="865" y="565" width="50" height="80"/>
  </g>
  <g opacity="0.5" stroke="#3a4530" stroke-width="3" fill="none">
    <path d="M 250 760 Q 280 720 310 760"/>
    <path d="M 1200 770 Q 1230 730 1260 770"/>
  </g>
  <text x="750" y="120" text-anchor="middle" font-family="Arial,sans-serif" font-size="42" fill="rgba(0,0,0,0.18)" font-weight="700" letter-spacing="8">PLATZHALTER · NACHHER · AUSSEN</text>
</svg>
