<svg xmlns="http://www.w3.org/2000/svg" viewBox="0 0 1500 1000" preserveAspectRatio="xMidYMid slice">
  <defs>
    <linearGradient id="floorB" x1="0" y1="0" x2="0" y2="1">
      <stop offset="0" stop-color="#332821"/>
      <stop offset="1" stop-color="#1a120c"/>
    </linearGradient>
  </defs>
  <rect width="1500" height="1000" fill="#1c1812"/>
  <polygon points="0,0 1500,0 1300,500 200,500" fill="#241f17"/>
  <polygon points="0,1000 1500,1000 1300,500 200,500" fill="url(#floorB)"/>
  <polygon points="0,0 200,500 200,1000 0,1000" fill="#181410"/>
  <polygon points="1500,0 1300,500 1300,1000 1500,1000" fill="#181410"/>
  <rect x="420" y="200" width="220" height="220" fill="#0c0a07" opacity="0.6"/>
  <g opacity="0.55" stroke="#000" stroke-width="2.5" fill="none">
    <path d="M 220 510 L 450 530 L 700 510 L 950 530 L 1280 510"/>
    <path d="M 350 580 L 550 600 L 800 580 L 1100 600"/>
    <path d="M 850 690 L 1050 710"/>
  </g>
  <g fill="#000" opacity="0.7">
    <rect x="500" y="730" width="180" height="40" rx="3"/>
    <rect x="900" y="800" width="240" height="35" rx="3"/>
    <rect x="350" y="850" width="120" height="30" rx="3"/>
  </g>
  <text x="750" y="120" text-anchor="middle" font-family="Arial,sans-serif" font-size="42" fill="rgba(255,255,255,0.16)" font-weight="700" letter-spacing="8">PLATZHALTER · VORHER · INNEN</text>
</svg>
