<svg xmlns="http://www.w3.org/2000/svg" viewBox="0 0 1500 1000" preserveAspectRatio="xMidYMid slice">
  <defs>
    <linearGradient id="floorA" x1="0" y1="0" x2="0" y2="1">
      <stop offset="0" stop-color="#d8c8a8"/>
      <stop offset="1" stop-color="#b39d76"/>
    </linearGradient>
    <linearGradient id="walls" x1="0" y1="0" x2="0" y2="1">
      <stop offset="0" stop-color="#f8f6f1"/>
      <stop offset="1" stop-color="#dcd6cb"/>
    </linearGradient>
  </defs>
  <rect width="1500" height="1000" fill="url(#walls)"/>
  <polygon points="0,0 1500,0 1300,500 200,500" fill="#ece7dd"/>
  <polygon points="0,1000 1500,1000 1300,500 200,500" fill="url(#floorA)"/>
  <polygon points="0,0 200,500 200,1000 0,1000" fill="#e1dccf"/>
  <polygon points="1500,0 1300,500 1300,1000 1500,1000" fill="#e1dccf"/>
  <rect x="420" y="160" width="220" height="280" fill="#a8b6bf" stroke="#fff" stroke-width="3"/>
  <line x1="530" y1="160" x2="530" y2="440" stroke="#fff" stroke-width="2"/>
  <g stroke="#9b8869" stroke-width="1.2" opacity="0.45">
    <path d="M 220 540 L 1280 540"/>
    <path d="M 230 600 L 1270 600"/>
    <path d="M 240 660 L 1260 660"/>
    <path d="M 260 740 L 1240 740"/>
    <path d="M 290 830 L 1210 830"/>
  </g>
  <rect x="780" y="540" width="280" height="180" fill="#3a3530" rx="4"/>
  <rect x="800" y="560" width="240" height="140" fill="#1a1a1a" rx="2"/>
  <circle cx="1130" cy="710" r="35" fill="#c9a45c" opacity="0.85"/>
  <text x="750" y="120" text-anchor="middle" font-family="Arial,sans-serif" font-size="42" fill="rgba(0,0,0,0.15)" font-weight="700" letter-spacing="8">PLATZHALTER · NACHHER · INNEN</text>
</svg>
